<svg width="433" height="433" viewBox="0 0 433 433" fill="none" xmlns="http://www.w3.org/2000/svg">
<circle cx="216.5" cy="216.5" r="216.5" fill="#323232"/>
<path d="M110.661 330C108.58 330 106.783 329.243 105.27 327.73C103.757 326.217 103 324.42 103 322.339V207.42C103 205.339 103.757 203.542 105.27 202.029C106.783 200.515 108.58 199.759 110.661 199.759H148.684C150.954 199.759 152.372 198.813 152.94 196.921C153.129 196.543 153.224 195.975 153.224 195.219C153.224 193.895 152.845 192.854 152.089 192.097C146.414 186.612 140.266 180.558 133.645 173.938C127.024 167.128 120.592 160.696 114.35 154.642L105.27 145.279C103.757 143.765 103 141.968 103 139.888V110.661C103 108.58 103.757 106.783 105.27 105.27C106.783 103.757 108.58 103 110.661 103H139.888C141.968 103 143.765 103.757 145.279 105.27L265.589 225.296C266.535 226.242 267.575 226.715 268.71 226.715C270.034 226.715 271.075 226.242 271.831 225.296C272.777 224.35 273.25 223.31 273.25 222.175V180.178C273.25 178.097 273.141 168.449 273.141 168.449C273.141 168.449 272.749 164.612 275.147 162.257C277.327 159.99 279.794 159.728 280.902 159.728H320.756V159.728C325.861 159.728 330 163.867 330 168.972V177.824V225.58C330 227.661 329.243 229.458 327.73 230.971C326.217 232.485 324.42 233.241 322.339 233.241H284.316C282.046 233.241 280.628 234.187 280.06 236.079C279.871 236.457 279.776 237.025 279.776 237.781C279.776 239.105 280.155 240.146 280.911 240.902C286.586 246.388 292.734 252.536 299.355 259.346C305.976 265.967 312.408 272.304 318.65 278.357L327.73 287.721C329.243 289.235 330 291.032 330 293.113V322.339C330 324.42 329.243 326.217 327.73 327.73C326.217 329.243 324.42 330 322.339 330H293.113C291.032 330 289.235 329.243 287.721 327.73L167.411 207.704C166.465 206.758 165.425 206.285 164.29 206.285C162.966 206.285 161.831 206.758 160.885 207.704C160.128 208.65 159.75 209.69 159.75 210.825V322.339C159.75 324.42 158.993 326.217 157.48 327.73C155.967 329.243 154.17 330 152.089 330H110.661Z" fill="black"/>
</svg>
