<?xml version="1.0" encoding="UTF-8"?>
<svg xmlns="http://www.w3.org/2000/svg" xmlns:xlink="http://www.w3.org/1999/xlink" width="35px" height="35px" viewBox="0 0 35 35" version="1.1">
<g id="surface1">
<path style=" stroke:none;fill-rule:nonzero;fill:rgb(88.627452%,100%,42.745098%);fill-opacity:1;" d="M 1.179688 35 C 0.859375 35 0.582031 34.882812 0.351562 34.648438 C 0.117188 34.417969 0 34.140625 0 33.820312 L 0 16.101562 C 0 15.777344 0.117188 15.503906 0.351562 15.269531 C 0.582031 15.035156 0.859375 14.917969 1.179688 14.917969 L 7.042969 14.917969 C 7.394531 14.917969 7.613281 14.773438 7.699219 14.480469 C 7.730469 14.421875 7.742188 14.335938 7.742188 14.21875 C 7.742188 14.015625 7.683594 13.855469 7.570312 13.738281 C 6.695312 12.890625 5.746094 11.957031 4.726562 10.9375 C 3.703125 9.886719 2.710938 8.894531 1.75 7.960938 L 0.351562 6.519531 C 0.117188 6.285156 0 6.007812 0 5.6875 L 0 1.179688 C 0 0.859375 0.117188 0.582031 0.351562 0.351562 C 0.582031 0.117188 0.859375 0 1.179688 0 L 5.6875 0 C 6.007812 0 6.285156 0.117188 6.519531 0.351562 L 25.070312 18.855469 C 25.214844 19.003906 25.375 19.074219 25.550781 19.074219 C 25.753906 19.074219 25.914062 19.003906 26.03125 18.855469 C 26.175781 18.710938 26.25 18.550781 26.25 18.375 L 26.25 11.898438 C 26.25 11.578125 26.234375 10.089844 26.234375 10.089844 C 26.234375 10.089844 26.171875 9.5 26.542969 9.136719 C 26.878906 8.785156 27.257812 8.746094 27.429688 8.746094 L 33.574219 8.746094 C 34.363281 8.746094 35 9.382812 35 10.171875 L 35 18.898438 C 35 19.222656 34.882812 19.496094 34.648438 19.730469 C 34.417969 19.964844 34.140625 20.082031 33.820312 20.082031 L 27.957031 20.082031 C 27.605469 20.082031 27.386719 20.226562 27.300781 20.519531 C 27.269531 20.578125 27.257812 20.664062 27.257812 20.78125 C 27.257812 20.984375 27.316406 21.144531 27.429688 21.261719 C 28.304688 22.109375 29.253906 23.054688 30.273438 24.105469 C 31.296875 25.128906 32.289062 26.105469 33.25 27.039062 L 34.648438 28.480469 C 34.882812 28.714844 35 28.992188 35 29.3125 L 35 33.820312 C 35 34.140625 34.882812 34.417969 34.648438 34.648438 C 34.417969 34.882812 34.140625 35 33.820312 35 L 29.3125 35 C 28.992188 35 28.714844 34.882812 28.480469 34.648438 L 9.929688 16.144531 C 9.785156 15.996094 9.625 15.925781 9.449219 15.925781 C 9.246094 15.925781 9.070312 15.996094 8.925781 16.144531 C 8.808594 16.289062 8.75 16.449219 8.75 16.625 L 8.75 33.820312 C 8.75 34.140625 8.632812 34.417969 8.398438 34.648438 C 8.167969 34.882812 7.890625 35 7.570312 35 Z M 1.179688 35 "/>
</g>
</svg>
